<?xml version="1.0" encoding="utf-8"?>
<!-- Generator: Adobe Illustrator 21.1.0, SVG Export Plug-In . SVG Version: 6.00 Build 0)  -->
<svg version="1.1" id="Layer_1" xmlns="http://www.w3.org/2000/svg" xmlns:xlink="http://www.w3.org/1999/xlink" x="0px" y="0px"
	 viewBox="0 0 1102.9 549.3" style="enable-background:new 0 0 1102.9 549.3;" xml:space="preserve">
<title>Tail</title>
<desc>Created with Sketch.</desc>
<g id="Page-1" style="opacity:0.7746;">
	<g id="FxA-WhatsNew---Chris-Beard-Letter" transform="translate(-287.000000, -154.000000)">
		
			<g id="Newsletter-Copy" transform="translate(719.500000, 468.500000) scale(1, -1) translate(-719.500000, -468.500000) translate(-51.000000, 154.000000)">
			<g id="Tail" transform="translate(-4.000000, -14.000000)">
				
					<g transform="translate(1075.500000, 254.000000) scale(1, -1) translate(-1075.500000, -254.000000) translate(341.000000, -174.000000)">
					<g>
						
							<g transform="translate(649.500000, 428.000000) rotate(90.000000) translate(-649.500000, -428.000000) translate(222.000000, -221.000000)">
							<g id="Group-6" transform="translate(0.000000, 513.000000)">
								<g id="Group-3" transform="translate(-0.000000, 0.234041)">
									
										<linearGradient id="Fill-1_1_" gradientUnits="userSpaceOnUse" x1="510.718" y1="606.786" x2="510.6067" y2="608.0254" gradientTransform="matrix(0 -738.5736 -704.8754 0 427985.9375 376865.1562)">
										<stop  offset="0" style="stop-color:#C40771"/>
										<stop  offset="0.5096" style="stop-color:#FF8E00"/>
										<stop  offset="1" style="stop-color:#FFEF4C"/>
									</linearGradient>
									<path id="Fill-1" style="fill:url(#Fill-1_1_);fill-opacity:0.3;" d="M328.7,2.1c17.8,20,20.9,26.1,26.8,35.7
										C407.9,93.6,486,230,429.9,401.1C324.2,723.2-98.6,571.5-142.9,528.9c25.6,265.8,649.5,334,702.5-123
										C590.5,139.5,308.8-18.2,328.7,2.1"/>
								</g>
							</g>
							<g id="Group-15" transform="translate(326.000000, 0.000000)">
								<g id="Group-12">
									
										<linearGradient id="Fill-10_1_" gradientUnits="userSpaceOnUse" x1="183.3839" y1="1120.4886" x2="184.069" y2="1119.3871" gradientTransform="matrix(0 -1297.348 -515.6622 0 577720.875 239183.8594)">
										<stop  offset="0" style="stop-color:#C40771"/>
										<stop  offset="0.7331" style="stop-color:#FF8E00"/>
										<stop  offset="1" style="stop-color:#FFEF4C"/>
									</linearGradient>
									<path id="Fill-10" style="fill:url(#Fill-10_1_);fill-opacity:0.2;" d="M205.7,1114.5c29.4-32.3,55.8-69.3,75.8-111.3
										c51.5-107.9,131-287.4,68.4-474.8C300.4,380.3,232.4,299.3,146,220.1C5.8,91.6-33.4,34.3-33.4,0.2
										c0,0-161.9,180-91.7,367.8S89,548.9,184.1,744.8c112,230.6-90.6,482.2-258.1,552.7c10.3-2.3,372.4-84,391.4-290.6
										C317,1010.7,308.8,1067.8,205.7,1114.5"/>
								</g>
								
									<linearGradient id="Fill-13_1_" gradientUnits="userSpaceOnUse" x1="184.3385" y1="1120.1641" x2="184.4377" y2="1121.1752" gradientTransform="matrix(0 -1082.8928 -495.6065 0 555279 199667.6562)">
									<stop  offset="0" style="stop-color:#C40771"/>
									<stop  offset="9.153488e-02" style="stop-color:#C70E6B"/>
									<stop  offset="0.5023" style="stop-color:#FD8A03"/>
									<stop  offset="0.5096" style="stop-color:#FF8E00"/>
									<stop  offset="1" style="stop-color:#FFEF4C"/>
								</linearGradient>
								<path id="Fill-13" style="fill:url(#Fill-13_1_);fill-opacity:0.2;" d="M190.6,1133.8c145.3-142.3,218.8-315.2,187.7-509.2
									c0,0,12.4,99.5-34.7,201.2c22.6-99.3,25.2-222.8-34.8-350.6C228.7,304.6,96.8,214.8,46.4,177.4
									C-29.9,120.6-61.5,62.9-62.1,50.9c-22.8,46.6-91.7,206.2-7.4,343.6C9.5,523.3,131,563.8,221.1,679.7
									C405.1,916.6,190.6,1133.8,190.6,1133.8"/>
							</g>
						</g>
						
							<linearGradient id="Oval-2_1_" gradientUnits="userSpaceOnUse" x1="175.3393" y1="510.1328" x2="176.32" y2="511.1947" gradientTransform="matrix(70 0 0 -70 -12242.4385 36183)">
							<stop  offset="0" style="stop-color:#C40771"/>
							<stop  offset="0.5096" style="stop-color:#FF8E00"/>
							<stop  offset="1" style="stop-color:#FFEF4C"/>
						</linearGradient>
						<circle id="Oval-2" style="opacity:0.3844;fill:url(#Oval-2_1_);enable-background:new    ;" cx="68.9" cy="433" r="35"/>
					</g>
				</g>
			</g>
		</g>
	</g>
</g>
</svg>
